<?xml version="1.0" encoding="UTF-8"?>
<svg id="ColoredStealth" xmlns="http://www.w3.org/2000/svg" viewBox="0 0 1824.97 1638.82">
  <path d="M1824.5,1045.12c-.6-.4-1.6-2-2.2-3.5-.7-1.5-2.3-3.4-3.6-4.3-1.4-.9-13.6-5.3-27.3-10-36-12.1-43.9-15-82.8-30.7-19.3-7.7-37.6-15-40.7-16.2-5.8-2.2-8.9-4.2-8.9-5.8,0-.5,4.6-6,10.3-12.1,12.7-13.9,16.8-18.9,24.4-29.7,17.1-24.3,27.8-47.8,35.3-76.7,5.2-20.6,4.1-39.3-3-49.1-5.4-7.5-11.1-9-25.5-6.7-16.3,2.5-78.3,18.5-101.8,26.2-8.6,2.8-11.1,3.2-12.2,2.3-2.3-1.9-1.9-4,3.6-15.6,21.4-45.5,38.6-93.8,44.3-124.3,4.1-21.8,3.9-31.8-.8-42.6-2-4.3-3.3-5.8-6.8-7.6-4-2-4.8-2.1-10.8-1.1-3.6,.6-9.3,2.3-12.5,3.8-7.9,3.6-23.9,13.5-34.4,21.2-8.8,6.4-11,7.2-13.1,4.7-1-1.2-.9-3.4,.4-10.7,1-5.1,2.1-10.7,2.6-12.3,2.7-8.5,6.1-41.1,7.6-72.5,1.4-27.9,1.5-37.7,.5-59-.6-14-1.3-39.7-1.6-57-1-54.2-2.7-80-7-106-1.3-8-2.9-19-3.5-24.5-6.7-58.7-23.5-128.4-43.7-180.5-20.4-52.8-53.5-114.9-64.6-121.4-5.3-3-9.6-2.1-28.5,6-52.9,22.8-113.9,57.9-196.2,112.9-42.5,28.5-64.3,45.1-83.1,63.2-7.3,7.1-12.4,11.3-13.7,11.3-1.2,0-7.9-2.1-14.9-4.6-78.6-28.2-129-40.4-166.6-40.4-6.1,0-13.9,.5-17.5,1.1-5.9,1-6.6,1-8.3-.8-2-1.9-2-2,1.1-11.1,8.2-24.4,10.2-49.9,4.4-55.7-4.2-4.2-11.7,.3-19.2,11.4-2.1,3.1-6.8,9.5-10.4,14.2-17.6,22.5-37.8,57.5-50.3,86.9-6.2,14.6-7.5,16.6-9.9,15.7-1.9-.7-2-1-7.6-18.2-11.8-36.2-32.5-67.3-54.3-81.8-12.3-8.2-23.3-11.3-31-8.8-3,1-3.7,1.8-4.3,4.6-.7,3.8-.2,5.7,3.6,14,3,6.6,11.2,29.4,13,36.4,.6,2.4,1.8,7.6,2.5,11.5,1.2,6.3,1.2,7.3-.2,8.8-.9,1-2,1.8-2.6,1.8-.5,0-3.4-2.3-6.5-5.1-5.9-5.4-9.3-7.2-11.6-6.3-2.3,.9-2.6,2.9-1.5,11.5,1.1,8.6,.4,10.9-3.2,10.9-1,0-5.4-4.2-10.6-10.3-68.2-79.5-132.4-128.9-233.9-179.5-12.2-6.1-24.8-12.2-28-13.5-3.3-1.4-9.5-4.1-13.9-6.1-13.5-6-17.1-4.8-26.5,9.1-23.5,34.6-50.1,89.4-67.6,139.3-21.5,61.2-41.9,146-53.3,220.5-13.6,89.4-16.8,140.3-15.5,248.7,.7,57.8,.7,58.8-3.2,58.8-.7,0-6.6-4.1-13.1-9.2-24-18.6-45.5-31-57.6-33.1-5.9-1-6.6-.9-10.7,1.4-8.6,4.7-12.1,17.3-10,35.9,3.6,32.5,21,83.7,48,141.6,3.4,7.3,3.9,9.3,3.1,11.1-1.3,2.8-2.6,2.9-9.3,.3-13.2-5.1-87.7-24.5-105.7-27.5-10.3-1.8-14.6-1.4-20.1,1.6-13.9,7.8-15.1,36.9-3,72.5,11,31.9,29.2,61.3,55.4,89.1,4.8,5.1,8.6,10,8.6,11.1,0,2.5,.7,2.2-43.1,19.8-39.1,15.7-68.8,26.7-97.2,36-20.7,6.7-22.7,8.1-22.7,15.3,0,5.9,3.4,11.6,11.4,18.9,24.3,22.1,87.6,48.8,140.1,59.2,16.3,3.2,35.9,5.9,43.3,6.1,6.1,.1,9.3,1.1,10.5,3,.8,1.3-.4,3.3-5.9,9.5-13.6,15.5-30.7,39.8-42.9,60.9-16.8,29-36.7,74.4-40.3,91.6-1.6,7.5-1.6,7.6,.9,12.5,3.2,6.6,8,8.8,26.1,12.4,33.5,6.7,60.2,6.7,107.3,0,28-4,45-7.4,56.7-11.2,13.7-4.5,14.2-3.8,11.3,14.5-.8,5-2.3,17.7-3.4,28.2-1.1,10.4-3,27.5-4.1,38-1.1,10.4-2.5,22.6-3.1,27-2.5,17.5,4.5,24.6,17.8,17.8,5.5-2.7,23.7-16,40.7-29.7,10.2-8.2,11.3-8.6,14-4.3,.9,1.3,.5,2.8-1.7,6.6-4.7,8.4-3.1,15.8,4.2,19.9,5.1,2.8,20.6,7.4,42.7,12.7,37.4,8.9,73.9,19.8,107.4,32.3,59.5,22.2,135.1,60.8,169.5,86.5,8.9,6.7,33.7,23.1,44.3,29.4,21,12.3,56.7,27.7,77.2,33.1,6.3,1.7,13.4,3.8,15.7,4.6,8.7,3.1,35.6,8.4,56.6,11.1,2.6,.3,4.7,1,4.7,1.6,0,1.2,16.3,1.2,17.6,0,.5-.5,7-1.4,14.4-2.1,20.1-1.6,38.4-5.4,51.5-10.5,3.3-1.3,9.4-3.3,13.5-4.4,30.1-8,69.8-27.1,102.2-49.2,32.1-21.8,44.6-30.2,55.4-36.7,12.5-7.5,64.1-33.8,83.4-42.5,50.6-22.7,97.9-38.7,156-52.7,23.8-5.7,41.9-11,45.5-13.4,6.1-4,7.7-12.3,3.7-19-2.4-4.1-2.8-7.6-1-9.4,2-2,3.2-1.4,10.4,4.4,21.3,17.5,43.6,33,49,34,7.1,1.3,12.1-3.4,12.6-11.8,.1-1.8-.8-11-2-20.3-1.2-9.4-3.1-27.1-4.2-39.5-1.8-19.8-4.9-44.3-6.6-52.7-.4-2.1,0-3.3,1.4-4.6,2-1.8,2.3-1.8,11.4,1.2,10.1,3.2,28.2,6.9,49.8,10.1,49.9,7.6,81.3,7.8,115.1,1,20-4,24.3-6.5,26.7-15.4,1.7-6.2-2.3-19.9-14.2-47.8-18.1-42.9-41.1-80.9-68.4-113.2-10.6-12.4-11.7-11.5,19-15.1,60.2-7,138-36.5,168.5-63.9,5.6-5.1,11.3-12.9,11.3-15.7,0-.9,.6-2,1.3-2.2,.8-.4,.9-.8,.2-1.4Zm-878.1-343.5c3.5-12.1,10.9-16.6,32.6-19.8,45.6-6.8,97.1-27.2,138.8-55.2,21.3-14.3,42.6-31.2,54.7-43.3,8.1-8.2,13.1-12.5,15.5-13.2,17.7-5.5,34.1,6.7,32.8,24.6-.6,8.9-4,14.3-16.8,27.1-23.2,23.3-67.5,54.4-101.7,71.4-52.1,25.9-121.1,44.4-140.7,37.7-11.7-4-18.7-17.5-15.2-29.3Zm-593.3-96.8c-13.8,18.4-36.3,51.4-46.9,68.5-7.1,11.6-8.5,12.9-14.5,12.9l-4.7,.1v-8c.1-4.4,.6-19.3,1.3-33,.7-13.8,1.5-44.1,1.7-67.5,.4-38.3,.8-45.4,3.5-71.5,1.7-15.9,3.7-33.3,4.5-38.5s1.9-14.5,2.5-20.5c3.6-36,13.8-99.6,22.9-144,17-82,38-150.1,69.4-225,25.4-60.5,30.6-70.9,37.1-73.5,3.3-1.4,5.4-1.1,9.9,1.1,5.3,2.7,21.3,13.9,33.7,23.7,13.4,10.6,44.6,42.2,57.4,58.2,42.4,53.2,83.7,137.4,104.7,213.6,2.1,7.8,4.3,15.3,4.8,16.7,.6,1.5,3.9,15.8,7.5,31.9,7.8,35.1,13.2,66.6,11.7,68.1-.6,.6-5.7,2.2-11.3,3.7-26.4,6.8-42,11.1-43.6,11.9-1.9,1.1-40.3,13.4-57.4,18.6-36.3,10.9-78.8,25.3-86.3,29.3-13.6,7.3-67.2,68.5-107.9,123.2Zm83,80c-15.3,0-25.3-11.3-23.8-27.1,.4-5.1,2.1-9.2,9.5-24.3,15.7-31.5,29.5-52.6,45.5-69.3,28.4-29.7,57.4-46.8,87.7-51.8,10.3-1.7,29.7-1.3,42.4,1,19.7,3.6,48.9,14,90.8,32.7,29.8,13.2,33.5,15.2,37.1,20.6,13.9,20.7-6.2,44.7-30.4,36.3-3-1-13-5.3-22.4-9.6-49.7-22.6-80.3-32.5-99.9-32.5-21.2,.1-42.9,11.2-65.2,33.4-15.6,15.6-25,29.8-40.8,61.4-12.2,24.4-17.1,29.1-30.5,29.2Zm245.5,365c-21.6,5.9-31.8,7.3-54.6,7.4-21.1,.1-28.6-.8-46.6-5.5-22.6-5.8-39.5-13.1-57-24.7-37.6-24.7-61.2-60.6-68.9-104.6-2-11.9-2-42.8,0-55.6,10.7-66.3,51.9-125.4,107-153.4,15.8-8,40.2-14.9,59.5-16.9,10-1,36.3-.6,44.7,.8,23,3.7,61.2,17.4,82.3,29.6,39.7,22.8,66.2,53.1,78,89.2,10.9,33.6,10.4,65-1.5,101.2-9.5,29.2-27.1,56.3-51.6,80-26.7,25.7-56.6,43-91.3,52.5Zm364.5,61.5c-5.7,12.2-24,40-34.9,53-30.5,36.4-54.5,54.6-85.7,65.3-14.7,5-29.5,7.6-40,6.9-14.4-1-37.2-7.5-51.3-14.6-21.5-10.9-46.6-32.7-68.5-59.4-12-14.7-29-41.1-33.6-52.1-3.5-8.4-3.6-19.1-.2-25.9,4.6-9.4,17.1-19.2,32.2-25.3,15.3-6.2,41.1-11.7,62.9-13.3,6.3-.5,37.2-.8,68.5-.6,64.1,.3,73.4,.9,96.9,6.9,20.1,5.2,32.5,10.7,43.6,19.2,13.7,10.7,17.3,24.6,10.1,39.9Zm281.1-210c-5.3,47.2-18.5,77.2-46.1,104.5-22.5,22.4-44,34.8-77,44.5-16.4,4.8-27.1,6.5-44.6,7.2-30,1.1-65.2-5.8-91.3-17.9-4.6-2.1-8.6-3.8-9-3.8s-5.6-2.9-11.5-6.4c-45.8-27.6-75.6-63-92.8-110.4-6.3-17.2-8.9-30.8-9.6-50.2-.6-14.5-.5-15.8,1.6-19.7,2.3-4.7,10.2-10.5,24.6-18.2,4.4-2.4,13-7.1,19-10.3,6.1-3.3,29.7-15.5,52.5-27.1,76.7-38.8,101.8-53,125.2-70.4,11-8.2,17-11.9,23.3-14.6,6.1-2.6,11.7-1.7,22.6,3.6,19.4,9.3,43.4,27.5,57.7,43.6,16.2,18.2,29.7,40.2,38.9,63,6.5,16.4,10.2,30.6,14.4,55.1,2.8,16.9,3,19.3,2.1,27.5Zm218.3-223.8c-.2,.7-1.5,1.3-2.8,1.3-2,0-5.3-4.3-20.6-27.3-25.8-38.5-38.7-56.4-60.7-83.7-33.8-41.9-36.1-44.6-43.2-50-17.6-13.6-62.4-37.2-93.7-49.5-9.3-3.6-18-7-19.2-7.5-1.6-.7-2.3-1.8-2.3-3.7,0-2.2,1.3-3.8,6.2-7.8,9.8-7.9,30.5-28.9,40.9-41.5,20.5-25,33.2-44.9,46.4-73,2-4.1,5.1-10.4,7.1-14,3.2-5.7,3.5-7.1,3.1-11.9-.6-7.7-4-10.7-13.4-11.6-3.7-.4-11.6-2.2-17.5-4-5.9-1.9-20-5.7-31.5-8.5-21-5.2-64-17.2-83.3-23.3-8.8-2.7-10.6-3.6-10.8-5.5-.2-1.5,3-6.8,10.4-16.9,5.9-8.2,14.8-20.4,19.8-27.3,35.8-49.4,70.8-89,119.6-135.4,14.6-13.8,30.7-29.1,35.8-34,5.4-5,10-8.6,11-8.4,.9,.2,3,2.8,4.7,5.8,10.1,17.7,13.6,24,23,42.3,15.8,30.9,31.5,68.4,38.9,93.2,1.5,4.9,3.8,12.1,5.1,16,7,20.6,20.2,81.4,25,115,7.5,52.9,13.1,117.2,14.1,164,.8,31.3-1,106.4-3.1,132.3-1.4,17.2-8,72.1-9,74.9Z"/>
</svg>